<?xml version="1.0" encoding="UTF-8" standalone="no"?>
<!-- Created with Inkscape (http://www.inkscape.org/) -->

<svg
   xmlns:dc="http://purl.org/dc/elements/1.1/"
   xmlns:cc="http://creativecommons.org/ns#"
   xmlns:rdf="http://www.w3.org/1999/02/22-rdf-syntax-ns#"
   xmlns:svg="http://www.w3.org/2000/svg"
   xmlns="http://www.w3.org/2000/svg"
   xmlns:sodipodi="http://sodipodi.sourceforge.net/DTD/sodipodi-0.dtd"
   xmlns:inkscape="http://www.inkscape.org/namespaces/inkscape"
   width="720"
   height="540"
   id="svg2"
   version="1.1"
   inkscape:version="0.48.4 r9939"
   sodipodi:docname="explicit.pdf">
  <defs
     id="defs4" />
  <sodipodi:namedview
     id="base"
     pagecolor="#ffffff"
     bordercolor="#666666"
     borderopacity="1.0"
     inkscape:pageopacity="0.0"
     inkscape:pageshadow="2"
     inkscape:zoom="0.65384612"
     inkscape:cx="-46.080601"
     inkscape:cy="1276.5033"
     inkscape:document-units="px"
     inkscape:current-layer="layer1"
     showgrid="false"
     units="in"
     width="8in"
     showguides="true"
     inkscape:guide-bbox="true"
     inkscape:window-width="1366"
     inkscape:window-height="711"
     inkscape:window-x="1920"
     inkscape:window-y="22"
     inkscape:window-maximized="1">
    <sodipodi:guide
       orientation="0,1"
       position="974.22644,837.65264"
       id="guide4411" />
    <sodipodi:guide
       orientation="1,0"
       position="-33.263778,998.98638"
       id="guide4513" />
    <sodipodi:guide
       orientation="0,1"
       position="336.92988,941.04302"
       id="guide4590" />
    <sodipodi:guide
       orientation="0,1"
       position="360.53644,731.80312"
       id="guide4592" />
    <sodipodi:guide
       orientation="1,0"
       position="-90.842429,837.65264"
       id="guide3915" />
  </sodipodi:namedview>
  <metadata
     id="metadata7">
    <rdf:RDF>
      <cc:Work
         rdf:about="">
        <dc:format>image/svg+xml</dc:format>
        <dc:type
           rdf:resource="http://purl.org/dc/dcmitype/StillImage" />
        <dc:title></dc:title>
      </cc:Work>
    </rdf:RDF>
  </metadata>
  <g
     inkscape:label="Layer 1"
     inkscape:groupmode="layer"
     id="layer1"
     transform="translate(0,-512.35975)">
    <path
       style="color:#000000;fill:#c83737;fill-opacity:1;fill-rule:nonzero;stroke:#c83737;stroke-width:0.79272383;stroke-linecap:round;stroke-miterlimit:4;stroke-opacity:1;stroke-dasharray:none;stroke-dashoffset:0;marker:none;visibility:visible;display:inline;overflow:visible;enable-background:accumulate"
       d="M 114.2102,842.42217 C 107.35899,838.2374 95.281538,830.8825 87.371407,826.07796 l -14.382045,-8.73554 67.712628,0 67.71264,0 13.56616,8.28743 c 7.46138,4.55809 19.52231,11.91299 26.80206,16.34422 l 13.2359,8.05678 -67.6759,0 -67.67591,0 -12.45674,-7.60868 z"
       id="path3946"
       inkscape:connector-curvature="0" />
    <path
       style="color:#000000;fill:#f4d7d7;fill-opacity:1;fill-rule:nonzero;stroke:#000000;stroke-width:1.87150025;stroke-linecap:round;stroke-miterlimit:4;stroke-opacity:1;stroke-dasharray:none;stroke-dashoffset:0;marker:none;visibility:visible;display:inline;overflow:visible;enable-background:accumulate"
       d="m 237.67524,833.80014 -26.6891,-16.23073 67.66356,-0.11529 67.66354,-0.11531 16.91599,10.21237 c 9.30378,5.61681 21.4279,12.97251 26.94248,16.34602 l 10.02651,6.13365 -67.91694,0 -67.91694,0 -26.6891,-16.23071 z"
       id="path3948"
       inkscape:connector-curvature="0" />
    <path
       style="color:#000000;fill:#c83737;fill-opacity:1;fill-rule:nonzero;stroke:#c83737;stroke-width:0.79272383;stroke-linecap:round;stroke-miterlimit:4;stroke-opacity:1;stroke-dasharray:none;stroke-dashoffset:0;marker:none;visibility:visible;display:inline;overflow:visible;enable-background:accumulate"
       d="m 292.50085,867.16958 -26.29613,-16.00372 67.79705,-0.11529 67.79706,-0.11531 25.40777,15.547 c 13.97428,8.55084 25.78251,15.7979 26.24051,16.10457 0.65932,0.44146 -13.27458,0.56059 -66.90871,0.57203 l -67.74144,0.0145 -26.29611,-16.00372 z"
       id="path3950"
       inkscape:connector-curvature="0" />
    <path
       style="color:#000000;fill:#a02c2c;fill-opacity:1;fill-rule:nonzero;stroke:#a02c2c;stroke-width:0.79272383;stroke-linecap:round;stroke-miterlimit:4;stroke-opacity:1;stroke-dasharray:none;stroke-dashoffset:0;marker:none;visibility:visible;display:inline;overflow:visible;enable-background:accumulate"
       d="m 519.13544,883.1762 -62.83114,-0.22991 -12.11542,-7.5279 c -6.66348,-4.14034 -18.31474,-11.29093 -25.89169,-15.8902 l -13.77627,-8.36233 66.79402,-0.22699 66.79402,-0.22701 12.21352,7.33621 c 6.71743,4.03491 18.95189,11.44089 27.18769,16.45772 l 14.97417,9.12151 -5.25888,-0.11059 c -2.89239,-0.0609 -33.5329,-0.21406 -68.09002,-0.34051 z"
       id="path3952"
       inkscape:connector-curvature="0" />
    <path
       style="color:#000000;fill:#a02c2c;fill-opacity:1;fill-rule:nonzero;stroke:#a02c2c;stroke-width:0.79272383;stroke-linecap:round;stroke-miterlimit:4;stroke-opacity:1;stroke-dasharray:none;stroke-dashoffset:0;marker:none;visibility:visible;display:inline;overflow:visible;enable-background:accumulate"
       d="m 154.87193,867.16662 -26.26936,-16.00076 67.46426,-0.1153 67.46425,-0.11531 26.25701,15.95911 c 14.44135,8.77752 26.3611,16.03108 26.48832,16.11902 0.12722,0.0879 -30.22614,0.15859 -67.4519,0.15695 l -67.68322,-0.003 -26.26936,-16.00075 z"
       id="path3954"
       inkscape:connector-curvature="0" />
    <path
       style="color:#000000;fill:#de8787;fill-opacity:1;fill-rule:nonzero;stroke:#de8787;stroke-width:0.79272383;stroke-linecap:round;stroke-miterlimit:4;stroke-opacity:1;stroke-dasharray:none;stroke-dashoffset:0;marker:none;visibility:visible;display:inline;overflow:visible;enable-background:accumulate"
       d="m 48.8066,802.66311 -22.413082,-13.69608 67.49915,-0.1153 67.499162,-0.11531 22.08825,13.44807 c 12.14852,7.39642 22.32556,13.62847 22.61564,13.84898 0.30525,0.23206 -27.98957,0.38509 -67.17433,0.36332 L 71.21968,816.35909 48.8066,802.66301 z"
       id="path3956"
       inkscape:connector-curvature="0" />
    <path
       style="color:#000000;fill:#de8787;fill-opacity:1;fill-rule:nonzero;stroke:#de8787;stroke-width:0.79272383;stroke-linecap:round;stroke-miterlimit:4;stroke-opacity:1;stroke-dasharray:none;stroke-dashoffset:0;marker:none;visibility:visible;display:inline;overflow:visible;enable-background:accumulate"
       d="m 186.97046,802.98433 c -12.06084,-7.36136 -22.16613,-13.57779 -22.4562,-13.81429 -0.33198,-0.27068 24.48001,-0.43 66.96387,-0.43 l 67.49127,0 22.69442,13.68462 c 12.48193,7.52654 22.79851,13.75778 22.92573,13.84718 0.12723,0.0894 -30.35104,0.14776 -67.72948,0.12967 l -67.9608,-0.0329 -21.92881,-13.38428 z"
       id="path3958"
       inkscape:connector-curvature="0" />
    <path
       style="color:#000000;fill:#d35f5f;fill-opacity:1;fill-rule:nonzero;stroke:#d35f5f;stroke-width:0.79272383;stroke-linecap:round;stroke-miterlimit:4;stroke-opacity:1;stroke-dasharray:none;stroke-dashoffset:0;marker:none;visibility:visible;display:inline;overflow:visible;enable-background:accumulate"
       d="m 324.95137,803.04136 c -12.19585,-7.36619 -22.42417,-13.59742 -22.7296,-13.84719 -0.37032,-0.30285 21.91507,-0.45413 66.89448,-0.45413 l 67.44981,0 22.45831,13.65813 c 12.35207,7.51199 22.5624,13.74322 22.68962,13.84719 0.12723,0.10398 -30.1031,0.18904 -67.17851,0.18904 l -67.40984,0 -22.17427,-13.39304 z"
       id="path3960"
       inkscape:connector-curvature="0" />
    <path
       style="color:#000000;fill:#f4d7d7;fill-opacity:1;fill-rule:nonzero;stroke:#f4d7d7;stroke-width:0.79272383;stroke-linecap:round;stroke-miterlimit:4;stroke-opacity:1;stroke-dasharray:none;stroke-dashoffset:0;marker:none;visibility:visible;display:inline;overflow:visible;enable-background:accumulate"
       d="m 398.80512,847.72003 c -1.85471,-1.14813 -13.61489,-8.27237 -26.13374,-15.83164 -12.51886,-7.55927 -22.99888,-13.92455 -23.28895,-14.14505 -0.30525,-0.23205 27.87187,-0.39378 66.89674,-0.38396 l 67.42414,0.0169 26.25921,15.98675 c 22.15506,13.48811 26.01623,16.00208 24.7046,16.08488 -0.85503,0.054 -31.01502,0.15696 -67.0222,0.22885 l -65.46761,0.13072 -3.37219,-2.08752 z"
       id="path3962"
       inkscape:connector-curvature="0" />
    <path
       style="color:#000000;fill:#5fd3bc;fill-opacity:1;fill-rule:nonzero;stroke:#5fd3bc;stroke-width:0.79272383;stroke-linecap:round;stroke-miterlimit:4;stroke-opacity:1;stroke-dasharray:none;stroke-dashoffset:0;marker:none;visibility:visible;display:inline;overflow:visible;enable-background:accumulate"
       d="m 113.48665,738.9812 c -6.8512,-4.18477 -18.928654,-11.53968 -26.838786,-16.34422 l -14.382035,-8.73554 67.712611,0 67.71263,0 13.56616,8.28744 c 7.46138,4.55808 19.52231,11.91298 26.80207,16.34421 l 13.2359,8.05678 -67.6759,0 -67.6759,0 -12.45675,-7.60867 z"
       id="path3946-8"
       inkscape:connector-curvature="0" />
    <path
       style="color:#000000;fill:#37c8ab;fill-opacity:1;fill-rule:nonzero;stroke:#000000;stroke-width:1.87199998;stroke-linecap:round;stroke-miterlimit:4;stroke-opacity:1;stroke-dasharray:none;stroke-dashoffset:0;marker:none;visibility:visible;display:inline;overflow:visible;enable-background:accumulate"
       d="m 236.95169,730.35916 -26.6891,-16.23072 67.66355,-0.1153 67.66355,-0.1153 16.91598,10.21236 c 9.30379,5.61681 21.42791,12.97252 26.94249,16.34602 l 10.02651,6.13365 -67.91694,0 -67.91695,0 -26.68909,-16.23071 z"
       id="path3948-9"
       inkscape:connector-curvature="0" />
    <path
       style="color:#000000;fill:#5fd3bc;fill-opacity:1;fill-rule:nonzero;stroke:#5fd3bc;stroke-width:0.79272383;stroke-linecap:round;stroke-miterlimit:4;stroke-opacity:1;stroke-dasharray:none;stroke-dashoffset:0;marker:none;visibility:visible;display:inline;overflow:visible;enable-background:accumulate"
       d="m 291.77729,763.7286 -26.29612,-16.00371 67.79705,-0.1153 67.79706,-0.11531 25.40776,15.547 c 13.97428,8.55085 25.78252,15.79791 26.24052,16.10458 0.65932,0.44146 -13.27459,0.56059 -66.90871,0.57202 l -67.74144,0.0145 -26.29612,-16.00371 z"
       id="path3950-4"
       inkscape:connector-curvature="0" />
    <path
       style="color:#000000;fill:#2ca089;fill-opacity:1;fill-rule:nonzero;stroke:#5fd3bc;stroke-width:0.79272383;stroke-linecap:round;stroke-miterlimit:4;stroke-opacity:1;stroke-dasharray:none;stroke-dashoffset:0;marker:none;visibility:visible;display:inline;overflow:visible;enable-background:accumulate"
       d="m 518.41189,779.73523 -62.83114,-0.22992 -12.11542,-7.52789 c -6.66348,-4.14034 -18.31474,-11.29093 -25.89169,-15.89021 l -13.77627,-8.36232 66.79402,-0.227 66.79402,-0.22701 12.21351,7.33621 c 6.71743,4.03492 18.95189,11.44089 27.1877,16.45772 l 14.97417,9.12151 -5.25888,-0.11059 c -2.89239,-0.0608 -33.5329,-0.21405 -68.09002,-0.3405 z"
       id="path3952-7"
       inkscape:connector-curvature="0" />
    <path
       style="color:#000000;fill:#afe9dd;fill-opacity:1;fill-rule:nonzero;stroke:#afe9dd;stroke-width:0.79272383;stroke-linecap:round;stroke-miterlimit:4;stroke-opacity:1;stroke-dasharray:none;stroke-dashoffset:0;marker:none;visibility:visible;display:inline;overflow:visible;enable-background:accumulate"
       d="m 154.14838,763.72565 -26.26936,-16.00076 67.46426,-0.11531 67.46425,-0.1153 26.25701,15.95911 c 14.44134,8.77751 26.36109,16.03107 26.48832,16.11902 0.12722,0.0879 -30.22614,0.15858 -67.4519,0.15695 l -67.68322,-0.003 -26.26936,-16.00076 z"
       id="path3954-2"
       inkscape:connector-curvature="0" />
    <path
       style="color:#000000;fill:#217867;fill-opacity:1;fill-rule:nonzero;stroke:#217867;stroke-width:0.79272383;stroke-linecap:round;stroke-miterlimit:4;stroke-opacity:1;stroke-dasharray:none;stroke-dashoffset:0;marker:none;visibility:visible;display:inline;overflow:visible;enable-background:accumulate"
       d="m 48.083065,699.22213 -22.413087,-13.69607 67.499147,-0.11531 67.499145,-0.1153 22.08825,13.44806 c 12.14853,7.39643 22.32557,13.62848 22.61564,13.84899 0.30526,0.23205 -27.98956,0.38508 -67.17432,0.36332 l -67.701702,-0.0377 -22.413073,-13.69607 z"
       id="path3956-9"
       inkscape:connector-curvature="0" />
    <path
       style="color:#000000;fill:#afe9dd;fill-opacity:1;fill-rule:nonzero;stroke:#afe9dd;stroke-width:0.79272383;stroke-linecap:round;stroke-miterlimit:4;stroke-opacity:1;stroke-dasharray:none;stroke-dashoffset:0;marker:none;visibility:visible;display:inline;overflow:visible;enable-background:accumulate"
       d="m 186.24691,699.54336 c -12.06084,-7.36136 -22.16613,-13.57779 -22.45621,-13.81429 -0.33198,-0.27068 24.48002,-0.43001 66.96388,-0.43001 l 67.49127,0 22.69441,13.68462 c 12.48194,7.52655 22.79852,13.75778 22.92574,13.84719 0.12722,0.0894 -30.35104,0.14775 -67.72948,0.12966 l -67.9608,-0.0329 -21.92881,-13.38428 z"
       id="path3958-5"
       inkscape:connector-curvature="0" />
    <path
       style="color:#000000;fill:#afe9dd;fill-opacity:1;fill-rule:nonzero;stroke:#afe9dd;stroke-width:0.79272383;stroke-linecap:round;stroke-miterlimit:4;stroke-opacity:1;stroke-dasharray:none;stroke-dashoffset:0;marker:none;visibility:visible;display:inline;overflow:visible;enable-background:accumulate"
       d="m 324.22782,699.60038 c -12.19586,-7.36618 -22.42417,-13.59741 -22.7296,-13.84719 -0.37032,-0.30284 21.91507,-0.45413 66.89448,-0.45413 l 67.44981,0 22.4583,13.65814 c 12.35207,7.51198 22.56241,13.74321 22.68963,13.84719 0.12722,0.10397 -30.10311,0.18903 -67.17851,0.18903 l -67.40985,0 -22.17426,-13.39304 z"
       id="path3960-6"
       inkscape:connector-curvature="0" />
    <path
       style="color:#000000;fill:#5fd3bc;fill-opacity:1;fill-rule:nonzero;stroke:#5fd3bc;stroke-width:0.79272383;stroke-linecap:round;stroke-miterlimit:4;stroke-opacity:1;stroke-dasharray:none;stroke-dashoffset:0;marker:none;visibility:visible;display:inline;overflow:visible;enable-background:accumulate"
       d="m 398.08156,744.27906 c -1.8547,-1.14813 -13.61488,-8.27237 -26.13374,-15.83165 -12.51885,-7.55926 -22.99887,-13.92454 -23.28894,-14.14505 -0.30526,-0.23205 27.87187,-0.39378 66.89674,-0.38395 l 67.42414,0.0169 26.2592,15.98675 c 22.15506,13.48812 26.01624,16.00208 24.70461,16.08489 -0.85503,0.054 -31.01503,0.15695 -67.0222,0.22885 l -65.46761,0.13071 -3.3722,-2.08751 z"
       id="path3962-9"
       inkscape:connector-curvature="0" />
    <path
       style="color:#000000;fill:#feac18;fill-opacity:1;fill-rule:nonzero;marker:none;visibility:visible;display:inline;overflow:visible;enable-background:accumulate"
       d="m 113.78891,633.65179 c -6.8512,-4.18477 -18.928652,-11.53968 -26.838783,-16.34422 l -14.382045,-8.73554 67.712608,0 67.71264,0 13.56616,8.28744 c 7.46137,4.55808 19.52231,11.91298 26.80206,16.34421 l 13.2359,8.05678 -67.6759,0 -67.67589,0 -12.45675,-7.60867 z"
       id="path3946-8-3"
       inkscape:connector-curvature="0" />
    <path
       style="color:#000000;fill:#feac18;fill-opacity:1;fill-rule:nonzero;stroke:#000000;stroke-width:1.87199998;stroke-linecap:round;stroke-miterlimit:4;stroke-opacity:1;stroke-dasharray:none;stroke-dashoffset:0;marker:none;visibility:visible;display:inline;overflow:visible;enable-background:accumulate"
       d="m 237.25394,625.02975 -26.6891,-16.23072 67.66355,-0.1153 67.66355,-0.1153 16.91599,10.21236 c 9.30378,5.61681 21.4279,12.97252 26.94248,16.34602 l 10.02651,6.13365 -67.91694,0 -67.91694,0 -26.6891,-16.23071 z"
       id="path3948-9-6"
       inkscape:connector-curvature="0" />
    <path
       style="color:#000000;fill:#fc6545;fill-opacity:1;fill-rule:nonzero;marker:none;visibility:visible;display:inline;overflow:visible;enable-background:accumulate"
       d="m 292.07955,658.39919 -26.29613,-16.00371 67.79705,-0.1153 67.79706,-0.11531 25.40777,15.547 c 13.97428,8.55084 25.78251,15.79791 26.24051,16.10458 0.65932,0.44146 -13.27458,0.56059 -66.90871,0.57202 l -67.74144,0.0145 -26.29611,-16.00371 z"
       id="path3950-4-4"
       inkscape:connector-curvature="0" />
    <path
       style="color:#000000;fill:#87d186;fill-opacity:1;fill-rule:nonzero;marker:none;visibility:visible;display:inline;overflow:visible;enable-background:accumulate"
       d="M 518.71414,674.40582 455.883,674.1759 443.76758,666.64801 c -6.66348,-4.14034 -18.31474,-11.29093 -25.89169,-15.89021 l -13.77627,-8.36232 66.79402,-0.227 66.79402,-0.22701 12.21352,7.33621 c 6.71743,4.03492 18.95189,11.44089 27.18769,16.45772 l 14.97417,9.12151 -5.25888,-0.11059 c -2.89239,-0.0608 -33.5329,-0.21405 -68.09002,-0.3405 z"
       id="path3952-7-4"
       inkscape:connector-curvature="0" />
    <path
       style="color:#000000;fill:#87d186;fill-opacity:1;fill-rule:nonzero;marker:none;visibility:visible;display:inline;overflow:visible;enable-background:accumulate"
       d="m 154.45063,658.39624 -26.26934,-16.00076 67.46424,-0.11531 67.46425,-0.1153 26.25701,15.95911 c 14.44135,8.77751 26.3611,16.03107 26.48832,16.11902 0.12722,0.0879 -30.22614,0.15858 -67.4519,0.15695 l -67.68322,-0.003 -26.26936,-16.00076 z"
       id="path3954-2-9"
       inkscape:connector-curvature="0" />
    <path
       style="color:#000000;fill:#87d186;fill-opacity:1;fill-rule:nonzero;marker:none;visibility:visible;display:inline;overflow:visible;enable-background:accumulate"
       d="m 48.385323,593.89272 -22.413088,-13.69607 67.499153,-0.11531 67.499132,-0.1153 22.08825,13.44806 c 12.14853,7.39643 22.32557,13.62848 22.61565,13.84899 0.30525,0.23205 -27.98957,0.38508 -67.17433,0.36332 L 70.7984,607.58875 48.385323,593.89268 z"
       id="path3956-9-4"
       inkscape:connector-curvature="0" />
    <path
       style="color:#000000;fill:#87d186;fill-opacity:1;fill-rule:nonzero;marker:none;visibility:visible;display:inline;overflow:visible;enable-background:accumulate"
       d="m 186.54916,594.21395 c -12.06084,-7.36136 -22.16613,-13.57779 -22.4562,-13.81429 -0.33198,-0.27068 24.48001,-0.43001 66.96387,-0.43001 l 67.49127,0 22.69442,13.68463 c 12.48193,7.52654 22.79851,13.75777 22.92573,13.84718 0.12723,0.0894 -30.35104,0.14775 -67.72948,0.12966 l -67.9608,-0.0329 -21.92881,-13.38428 z"
       id="path3958-5-9"
       inkscape:connector-curvature="0" />
    <path
       style="color:#000000;fill:#87d186;fill-opacity:1;fill-rule:nonzero;marker:none;visibility:visible;display:inline;overflow:visible;enable-background:accumulate"
       d="m 324.53007,594.27097 c -12.19585,-7.36618 -22.42417,-13.59741 -22.7296,-13.84719 -0.37032,-0.30284 21.91507,-0.45413 66.89448,-0.45413 l 67.44981,0 22.45831,13.65814 c 12.35207,7.51198 22.5624,13.74321 22.68962,13.84719 0.12723,0.10397 -30.1031,0.18903 -67.17851,0.18903 l -67.40984,0 -22.17427,-13.39304 z"
       id="path3960-6-0"
       inkscape:connector-curvature="0" />
    <path
       style="color:#000000;fill:#feac18;fill-opacity:1;fill-rule:nonzero;marker:none;visibility:visible;display:inline;overflow:visible;enable-background:accumulate"
       d="m 398.38382,638.94965 c -1.85471,-1.14813 -13.61489,-8.27237 -26.13374,-15.83165 -12.51886,-7.55926 -22.99888,-13.92454 -23.28895,-14.14505 -0.30525,-0.23205 27.87187,-0.39378 66.89674,-0.38395 l 67.42414,0.0169 26.25921,15.98675 c 22.15506,13.48812 26.01623,16.00207 24.7046,16.08488 -0.85503,0.054 -31.01502,0.15696 -67.0222,0.22886 l -65.46761,0.13071 -3.37219,-2.08752 z"
       id="path3962-9-0"
       inkscape:connector-curvature="0" />
    <path
       style="fill:#ffffff;stroke:#1a1a1a;stroke-width:6.75691557px;stroke-linecap:butt;stroke-linejoin:miter;stroke-opacity:1"
       d="m 302.73391,729.80041 0,-54.45848"
       id="path4156"
       inkscape:connector-curvature="0" />
    <path
       style="fill:#ffffff;stroke:#1a1a1a;stroke-width:6.93473101px;stroke-linecap:butt;stroke-linejoin:miter;stroke-opacity:1"
       d="m 302.69874,831.48216 0,-51.44651 0,0.644 0,0"
       id="path4158"
       inkscape:connector-curvature="0" />
    <path
       style="fill:#ffffff;stroke:#1a1a1a;stroke-width:6.33073235px;stroke-linecap:butt;stroke-linejoin:miter;stroke-opacity:1"
       d="m 302.77616,623.27671 c 0,0 0,-61.01792 0,-99.64007"
       id="path4160"
       inkscape:connector-curvature="0"
       sodipodi:nodetypes="cc" />
    <path
       style="fill:#ffffff;stroke:#1a1a1a;stroke-width:6.93473101px;stroke-linecap:butt;stroke-linejoin:miter;stroke-opacity:1"
       d="m 302.40024,934.98467 0,-51.44651 0,0.644 0,0"
       id="path4158-2"
       inkscape:connector-curvature="0" />
    <text
       xml:space="preserve"
       style="font-size:24.99879646px;font-style:normal;font-variant:normal;font-weight:bold;font-stretch:normal;text-align:start;line-height:125%;letter-spacing:0px;word-spacing:0px;writing-mode:lr-tb;text-anchor:start;fill:#1a1a1a;fill-opacity:1;stroke:none;font-family:Lato;-inkscape-font-specification:Lato Bold"
       x="606.23651"
       y="669.41187"
       id="text4198"
       sodipodi:linespacing="125%"><tspan
         sodipodi:role="line"
         id="tspan4200"
         x="606.23651"
         y="669.41187">Neighborhood (8 cells)</tspan></text>
    <text
       xml:space="preserve"
       style="font-size:24.99879646px;font-style:normal;font-variant:normal;font-weight:bold;font-stretch:normal;text-align:start;line-height:125%;letter-spacing:0px;word-spacing:0px;writing-mode:lr-tb;text-anchor:start;fill:#1a1a1a;fill-opacity:1;stroke:none;font-family:Lato;-inkscape-font-specification:Lato Bold"
       x="610.0769"
       y="773.98114"
       id="text4198-6"
       sodipodi:linespacing="125%"><tspan
         sodipodi:role="line"
         id="tspan4200-6"
         x="610.0769"
         y="773.98114">Annual mean temperature (1 cell)</tspan></text>
    <text
       xml:space="preserve"
       style="font-size:24.99879646px;font-style:normal;font-variant:normal;font-weight:bold;font-stretch:normal;text-align:start;line-height:125%;letter-spacing:0px;word-spacing:0px;writing-mode:lr-tb;text-anchor:start;fill:#1a1a1a;fill-opacity:1;stroke:none;font-family:Lato;-inkscape-font-specification:Lato Bold"
       x="610.29926"
       y="880.35815"
       id="text4198-9"
       sodipodi:linespacing="125%"><tspan
         sodipodi:role="line"
         id="tspan4200-0"
         x="610.29926"
         y="880.35815">Annual mean precipitation (1 cell)</tspan></text>
    <path
       style="fill:#1a1a1a;stroke:#1a1a1a;stroke-width:1.46494675px;stroke-linecap:butt;stroke-linejoin:miter;stroke-opacity:1"
       d="m 314.68353,915.38242 -12.87552,5.64864 -12.44102,-5.64864 12.44372,28.79261 z"
       id="path4388"
       inkscape:connector-curvature="0"
       sodipodi:nodetypes="ccccc" />
    <flowRoot
       xml:space="preserve"
       id="flowRoot4308-8-7-5"
       style="font-size:32px;font-style:normal;font-variant:normal;font-weight:normal;font-stretch:normal;text-align:start;line-height:125%;letter-spacing:0px;word-spacing:0px;writing-mode:lr-tb;text-anchor:start;fill:#1a1a1a;fill-opacity:1;stroke:none;font-family:Lato;-inkscape-font-specification:Lato"
       transform="matrix(2.2317608,0,0,2.2317608,755.6539,1810.2208)"><flowRegion
         id="flowRegion4310-9-0-4"><rect
           id="rect4312-9-3-3"
           width="192.38013"
           height="74.455208"
           x="-354.0983"
           y="-573.80005"
           style="font-size:32px;font-style:normal;font-variant:normal;font-weight:normal;font-stretch:normal;text-align:start;line-height:125%;writing-mode:lr-tb;text-anchor:start;fill:#1a1a1a;font-family:Lato;-inkscape-font-specification:Lato" /></flowRegion><flowPara
         id="flowPara4314-0-3-8"
         style="font-size:13.4423008px;font-style:normal;font-variant:normal;font-weight:bold;font-stretch:normal;text-align:start;line-height:125%;writing-mode:lr-tb;text-anchor:start;fill:#1a1a1a;font-family:Lato;-inkscape-font-specification:Lato Bold">Initial state: Temperate</flowPara></flowRoot>    <path
       sodipodi:nodetypes="cccccccccccccccc"
       inkscape:connector-curvature="0"
       id="path3001"
       style="fill:#000000;stroke:#000000;stroke-width:0.52260776pt;stroke-linecap:butt;stroke-linejoin:miter;stroke-opacity:1"
       d="M 16.647587,934.84997 174.13308,1038.189 m -19.8707,-103.33903 c 0,0 159.8054,104.70213 157.4854,103.33903 m -19.8707,-103.33903 c 0,0 159.1258,103.33903 157.4854,103.33903 M 429.49168,934.84997 586.97718,1038.189 M 16.647587,934.84997 l 413.157693,0.0727 m -366.009692,30.89482 412.752692,0 m -357.43039,36.36551 412.14539,-0.4356 m -357.1302,36.2112 412.7527,0.1452" />
    <flowRoot
       xml:space="preserve"
       id="flowRoot4308-8"
       style="font-size:32px;font-style:normal;font-variant:normal;font-weight:normal;font-stretch:normal;text-align:start;line-height:125%;letter-spacing:0px;word-spacing:0px;writing-mode:lr-tb;text-anchor:start;fill:#1a1a1a;fill-opacity:1;stroke:none;font-family:Lato;-inkscape-font-specification:Lato"
       transform="matrix(2.2317608,0,0,2.2317608,756.98877,2171.6911)"><flowRegion
         id="flowRegion4310-9"><rect
           id="rect4312-9"
           width="148.7683"
           height="39.565742"
           x="-354.0983"
           y="-573.80005"
           style="font-size:32px;font-style:normal;font-variant:normal;font-weight:normal;font-stretch:normal;text-align:start;line-height:125%;writing-mode:lr-tb;text-anchor:start;fill:#1a1a1a;font-family:Lato;-inkscape-font-specification:Lato" /></flowRegion><flowPara
         id="flowPara4314-0"
         style="font-size:13.4423008px;font-style:normal;font-variant:normal;font-weight:bold;font-stretch:normal;text-align:start;line-height:125%;writing-mode:lr-tb;text-anchor:start;fill:#1a1a1a;font-family:Lato;-inkscape-font-specification:Lato Bold">State at the next step ?</flowPara></flowRoot>    <path
       style="color:#000000;fill:#87d186;fill-opacity:1;fill-rule:nonzero;stroke:#000000;stroke-width:2.84073496;stroke-linecap:round;stroke-miterlimit:4;stroke-opacity:1;stroke-dasharray:none;stroke-dashoffset:0;marker:none;visibility:visible;display:inline;overflow:visible;enable-background:accumulate"
       d="m 230.56018,983.6102 -24.8694,-16.56893 66.6555,0 66.6555,0 23.4658,15.31374 c 12.9062,8.42254 24.1145,15.9341 24.9074,16.69234 0.8651,0.82737 -25.2262,1.32925 -65.252,1.25515 l -66.6935,-0.1234 -24.8693,-16.5689 z"
       id="path4413"
       inkscape:connector-curvature="0" />
    <flowRoot
       xml:space="preserve"
       id="flowRoot4690"
       style="font-size:25px;font-style:normal;font-variant:normal;font-weight:normal;font-stretch:normal;text-align:start;line-height:125%;letter-spacing:0px;word-spacing:0px;writing-mode:lr-tb;text-anchor:start;fill:#000000;fill-opacity:1;stroke:none;font-family:Lato;-inkscape-font-specification:Lato"
       transform="translate(-60.119553,671.01074)"><flowRegion
         id="flowRegion4692"><rect
           id="rect4694"
           width="223.18922"
           height="39.701935"
           x="417.40677"
           y="-131.71371"
           style="font-size:25px;font-style:normal;font-variant:normal;font-weight:normal;font-stretch:normal;text-align:start;line-height:125%;writing-mode:lr-tb;text-anchor:start;font-family:Lato;-inkscape-font-specification:Lato" /></flowRegion><flowPara
         id="flowPara4696"><flowSpan
   style="font-weight:bold;-inkscape-font-specification:Lato Bold"
   id="flowSpan4698">Cell area:</flowSpan>1 ha</flowPara></flowRoot>  </g>
</svg>
