<?xml version="1.0" encoding="UTF-8" standalone="no"?>
<!-- Created with Inkscape (http://www.inkscape.org/) -->

<svg
   xmlns:dc="http://purl.org/dc/elements/1.1/"
   xmlns:cc="http://creativecommons.org/ns#"
   xmlns:rdf="http://www.w3.org/1999/02/22-rdf-syntax-ns#"
   xmlns:svg="http://www.w3.org/2000/svg"
   xmlns="http://www.w3.org/2000/svg"
   xmlns:sodipodi="http://sodipodi.sourceforge.net/DTD/sodipodi-0.dtd"
   xmlns:inkscape="http://www.inkscape.org/namespaces/inkscape"
   width="720"
   height="540"
   id="svg2"
   version="1.1"
   inkscape:version="0.48.4 r9939"
   sodipodi:docname="explicit.pdf">
  <defs
     id="defs4" />
  <sodipodi:namedview
     id="base"
     pagecolor="#ffffff"
     bordercolor="#666666"
     borderopacity="1.0"
     inkscape:pageopacity="0.0"
     inkscape:pageshadow="2"
     inkscape:zoom="0.65641022"
     inkscape:cx="607.09796"
     inkscape:cy="781.93504"
     inkscape:document-units="px"
     inkscape:current-layer="layer1"
     showgrid="false"
     units="in"
     width="8in"
     showguides="true"
     inkscape:guide-bbox="true"
     inkscape:window-width="1366"
     inkscape:window-height="711"
     inkscape:window-x="1920"
     inkscape:window-y="188"
     inkscape:window-maximized="1">
    <sodipodi:guide
       orientation="0,1"
       position="974.22644,837.65264"
       id="guide4411" />
    <sodipodi:guide
       orientation="1,0"
       position="-33.263778,998.98638"
       id="guide4513" />
    <sodipodi:guide
       orientation="0,1"
       position="336.92988,941.04302"
       id="guide4590" />
    <sodipodi:guide
       orientation="0,1"
       position="360.53644,731.80312"
       id="guide4592" />
  </sodipodi:namedview>
  <metadata
     id="metadata7">
    <rdf:RDF>
      <cc:Work
         rdf:about="">
        <dc:format>image/svg+xml</dc:format>
        <dc:type
           rdf:resource="http://purl.org/dc/dcmitype/StillImage" />
        <dc:title></dc:title>
      </cc:Work>
    </rdf:RDF>
  </metadata>
  <g
     inkscape:label="Layer 1"
     inkscape:groupmode="layer"
     id="layer1"
     transform="translate(0,-512.35975)">
    <path
       style="color:#000000;fill:#c83737;fill-opacity:1;fill-rule:nonzero;stroke:#c83737;stroke-width:0.79272383;stroke-linecap:round;stroke-miterlimit:4;stroke-opacity:1;stroke-dasharray:none;stroke-dashoffset:0;marker:none;visibility:visible;display:inline;overflow:visible;enable-background:accumulate"
       d="M 57.485653,331.97424 C 50.634449,327.78947 38.556992,320.43457 30.646861,315.63003 l -14.382045,-8.73554 67.712633,0 67.712641,0 13.56616,8.28743 c 7.46138,4.55809 19.52231,11.91299 26.80206,16.34422 l 13.2359,8.05678 -67.6759,0 -67.675911,0 -12.456746,-7.60868 z"
       id="path3946"
       inkscape:connector-curvature="0" />
    <path
       style="color:#000000;fill:#f4d7d7;fill-opacity:1;fill-rule:nonzero;stroke:#aa0000;stroke-width:1.87150025;stroke-linecap:round;stroke-miterlimit:4;stroke-opacity:1;stroke-dasharray:none;stroke-dashoffset:0;marker:none;visibility:visible;display:inline;overflow:visible;enable-background:accumulate"
       d="m 180.9507,323.35221 -26.6891,-16.23073 67.66356,-0.11529 67.66354,-0.11531 16.91599,10.21237 c 9.30378,5.61681 21.4279,12.97251 26.94248,16.34602 l 10.02651,6.13365 -67.91694,0 -67.91694,0 -26.6891,-16.23071 z"
       id="path3948"
       inkscape:connector-curvature="0" />
    <path
       style="color:#000000;fill:#c83737;fill-opacity:1;fill-rule:nonzero;stroke:#c83737;stroke-width:0.79272383;stroke-linecap:round;stroke-miterlimit:4;stroke-opacity:1;stroke-dasharray:none;stroke-dashoffset:0;marker:none;visibility:visible;display:inline;overflow:visible;enable-background:accumulate"
       d="m 235.77631,356.72165 -26.29613,-16.00372 67.79705,-0.11529 67.79706,-0.11531 25.40777,15.547 c 13.97428,8.55084 25.78251,15.7979 26.24051,16.10457 0.65932,0.44146 -13.27458,0.56059 -66.90871,0.57203 l -67.74144,0.0145 -26.29611,-16.00372 z"
       id="path3950"
       inkscape:connector-curvature="0" />
    <path
       style="color:#000000;fill:#a02c2c;fill-opacity:1;fill-rule:nonzero;stroke:#a02c2c;stroke-width:0.79272383;stroke-linecap:round;stroke-miterlimit:4;stroke-opacity:1;stroke-dasharray:none;stroke-dashoffset:0;marker:none;visibility:visible;display:inline;overflow:visible;enable-background:accumulate"
       d="m 462.4109,372.72827 -62.83114,-0.22991 -12.11542,-7.5279 c -6.66348,-4.14034 -18.31474,-11.29093 -25.89169,-15.8902 l -13.77627,-8.36233 66.79402,-0.22699 66.79402,-0.22701 12.21352,7.33621 c 6.71743,4.03491 18.95189,11.44089 27.18769,16.45772 l 14.97417,9.12151 -5.25888,-0.11059 c -2.89239,-0.0609 -33.5329,-0.21406 -68.09002,-0.34051 z"
       id="path3952"
       inkscape:connector-curvature="0" />
    <path
       style="color:#000000;fill:#a02c2c;fill-opacity:1;fill-rule:nonzero;stroke:#a02c2c;stroke-width:0.79272383;stroke-linecap:round;stroke-miterlimit:4;stroke-opacity:1;stroke-dasharray:none;stroke-dashoffset:0;marker:none;visibility:visible;display:inline;overflow:visible;enable-background:accumulate"
       d="m 98.14739,356.71869 -26.269365,-16.00076 67.464265,-0.1153 67.46425,-0.11531 26.25701,15.95911 c 14.44135,8.77752 26.3611,16.03108 26.48832,16.11902 0.12722,0.0879 -30.22614,0.15859 -67.4519,0.15695 l -67.68322,-0.003 -26.26936,-16.00075 z"
       id="path3954"
       inkscape:connector-curvature="0" />
    <path
       style="color:#000000;fill:#de8787;fill-opacity:1;fill-rule:nonzero;stroke:#de8787;stroke-width:0.79272383;stroke-linecap:round;stroke-miterlimit:4;stroke-opacity:1;stroke-dasharray:none;stroke-dashoffset:0;marker:none;visibility:visible;display:inline;overflow:visible;enable-background:accumulate"
       d="m -7.917946,292.21518 -22.413082,-13.69608 67.49915,-0.1153 67.499168,-0.11531 22.08825,13.44807 c 12.14852,7.39642 22.32556,13.62847 22.61564,13.84898 0.30525,0.23206 -27.98957,0.38509 -67.174329,0.36332 l -67.701717,-0.0377 -22.41308,-13.69608 z"
       id="path3956"
       inkscape:connector-curvature="0" />
    <path
       style="color:#000000;fill:#de8787;fill-opacity:1;fill-rule:nonzero;stroke:#de8787;stroke-width:0.79272383;stroke-linecap:round;stroke-miterlimit:4;stroke-opacity:1;stroke-dasharray:none;stroke-dashoffset:0;marker:none;visibility:visible;display:inline;overflow:visible;enable-background:accumulate"
       d="m 130.24592,292.5364 c -12.06084,-7.36136 -22.16613,-13.57779 -22.4562,-13.81429 -0.33198,-0.27068 24.48001,-0.43 66.96387,-0.43 l 67.49127,0 22.69442,13.68462 c 12.48193,7.52654 22.79851,13.75778 22.92573,13.84718 0.12723,0.0894 -30.35104,0.14776 -67.72948,0.12967 l -67.9608,-0.0329 -21.92881,-13.38428 z"
       id="path3958"
       inkscape:connector-curvature="0" />
    <path
       style="color:#000000;fill:#d35f5f;fill-opacity:1;fill-rule:nonzero;stroke:#d35f5f;stroke-width:0.79272383;stroke-linecap:round;stroke-miterlimit:4;stroke-opacity:1;stroke-dasharray:none;stroke-dashoffset:0;marker:none;visibility:visible;display:inline;overflow:visible;enable-background:accumulate"
       d="m 268.22683,292.59343 c -12.19585,-7.36619 -22.42417,-13.59742 -22.7296,-13.84719 -0.37032,-0.30285 21.91507,-0.45413 66.89448,-0.45413 l 67.44981,0 22.45831,13.65813 c 12.35207,7.51199 22.5624,13.74322 22.68962,13.84719 0.12723,0.10398 -30.1031,0.18904 -67.17851,0.18904 l -67.40984,0 -22.17427,-13.39304 z"
       id="path3960"
       inkscape:connector-curvature="0" />
    <path
       style="color:#000000;fill:#f4d7d7;fill-opacity:1;fill-rule:nonzero;stroke:#f4d7d7;stroke-width:0.79272383;stroke-linecap:round;stroke-miterlimit:4;stroke-opacity:1;stroke-dasharray:none;stroke-dashoffset:0;marker:none;visibility:visible;display:inline;overflow:visible;enable-background:accumulate"
       d="m 342.08058,337.2721 c -1.85471,-1.14813 -13.61489,-8.27237 -26.13374,-15.83164 -12.51886,-7.55927 -22.99888,-13.92455 -23.28895,-14.14505 -0.30525,-0.23205 27.87187,-0.39378 66.89674,-0.38396 l 67.42414,0.0169 26.25921,15.98675 c 22.15506,13.48811 26.01623,16.00208 24.7046,16.08488 -0.85503,0.054 -31.01502,0.15696 -67.0222,0.22885 l -65.46761,0.13072 -3.37219,-2.08752 z"
       id="path3962"
       inkscape:connector-curvature="0" />
    <path
       style="color:#000000;fill:#5fd3bc;fill-opacity:1;fill-rule:nonzero;stroke:#5fd3bc;stroke-width:0.79272383;stroke-linecap:round;stroke-miterlimit:4;stroke-opacity:1;stroke-dasharray:none;stroke-dashoffset:0;marker:none;visibility:visible;display:inline;overflow:visible;enable-background:accumulate"
       d="M 56.76211,228.53327 C 49.910906,224.3485 37.83345,216.99359 29.923318,212.18905 l -14.382035,-8.73554 67.712613,0 67.712634,0 13.56616,8.28744 c 7.46138,4.55808 19.52231,11.91298 26.80207,16.34421 l 13.2359,8.05678 -67.6759,0 -67.675903,0 -12.456747,-7.60867 z"
       id="path3946-8"
       inkscape:connector-curvature="0" />
    <path
       style="color:#000000;fill:#37c8ab;fill-opacity:1;fill-rule:nonzero;stroke:#005544;stroke-width:1.872;stroke-linecap:round;stroke-miterlimit:4;stroke-opacity:1;stroke-dasharray:none;stroke-dashoffset:0;marker:none;visibility:visible;display:inline;overflow:visible;enable-background:accumulate"
       d="m 180.22715,219.91123 -26.6891,-16.23072 67.66355,-0.1153 67.66355,-0.1153 16.91598,10.21236 c 9.30379,5.61681 21.42791,12.97252 26.94249,16.34602 l 10.02651,6.13365 -67.91694,0 -67.91695,0 -26.68909,-16.23071 z"
       id="path3948-9"
       inkscape:connector-curvature="0" />
    <path
       style="color:#000000;fill:#5fd3bc;fill-opacity:1;fill-rule:nonzero;stroke:#5fd3bc;stroke-width:0.79272383;stroke-linecap:round;stroke-miterlimit:4;stroke-opacity:1;stroke-dasharray:none;stroke-dashoffset:0;marker:none;visibility:visible;display:inline;overflow:visible;enable-background:accumulate"
       d="m 235.05275,253.28067 -26.29612,-16.00371 67.79705,-0.1153 67.79706,-0.11531 25.40776,15.547 c 13.97428,8.55085 25.78252,15.79791 26.24052,16.10458 0.65932,0.44146 -13.27459,0.56059 -66.90871,0.57202 l -67.74144,0.0145 -26.29612,-16.00371 z"
       id="path3950-4"
       inkscape:connector-curvature="0" />
    <path
       style="color:#000000;fill:#2ca089;fill-opacity:1;fill-rule:nonzero;stroke:#5fd3bc;stroke-width:0.79272383;stroke-linecap:round;stroke-miterlimit:4;stroke-opacity:1;stroke-dasharray:none;stroke-dashoffset:0;marker:none;visibility:visible;display:inline;overflow:visible;enable-background:accumulate"
       d="m 461.68735,269.2873 -62.83114,-0.22992 -12.11542,-7.52789 c -6.66348,-4.14034 -18.31474,-11.29093 -25.89169,-15.89021 l -13.77627,-8.36232 66.79402,-0.227 66.79402,-0.22701 12.21351,7.33621 c 6.71743,4.03492 18.95189,11.44089 27.1877,16.45772 l 14.97417,9.12151 -5.25888,-0.11059 c -2.89239,-0.0608 -33.5329,-0.21405 -68.09002,-0.3405 z"
       id="path3952-7"
       inkscape:connector-curvature="0" />
    <path
       style="color:#000000;fill:#afe9dd;fill-opacity:1;fill-rule:nonzero;stroke:#afe9dd;stroke-width:0.79272383;stroke-linecap:round;stroke-miterlimit:4;stroke-opacity:1;stroke-dasharray:none;stroke-dashoffset:0;marker:none;visibility:visible;display:inline;overflow:visible;enable-background:accumulate"
       d="m 97.423837,253.27772 -26.269355,-16.00076 67.464258,-0.11531 67.46425,-0.1153 26.25701,15.95911 c 14.44134,8.77751 26.36109,16.03107 26.48832,16.11902 0.12722,0.0879 -30.22614,0.15858 -67.4519,0.15695 l -67.68322,-0.003 -26.269363,-16.00076 z"
       id="path3954-2"
       inkscape:connector-curvature="0" />
    <path
       style="color:#000000;fill:#217867;fill-opacity:1;fill-rule:nonzero;stroke:#217867;stroke-width:0.79272383;stroke-linecap:round;stroke-miterlimit:4;stroke-opacity:1;stroke-dasharray:none;stroke-dashoffset:0;marker:none;visibility:visible;display:inline;overflow:visible;enable-background:accumulate"
       d="m -8.6414806,188.7742 -22.4130874,-13.69607 67.499147,-0.11531 67.499151,-0.1153 22.08825,13.44806 c 12.14853,7.39643 22.32557,13.62848 22.61564,13.84899 0.30526,0.23205 -27.98956,0.38508 -67.174322,0.36332 l -67.701706,-0.0377 -22.4130726,-13.69607 z"
       id="path3956-9"
       inkscape:connector-curvature="0" />
    <path
       style="color:#000000;fill:#afe9dd;fill-opacity:1;fill-rule:nonzero;stroke:#afe9dd;stroke-width:0.79272383;stroke-linecap:round;stroke-miterlimit:4;stroke-opacity:1;stroke-dasharray:none;stroke-dashoffset:0;marker:none;visibility:visible;display:inline;overflow:visible;enable-background:accumulate"
       d="m 129.52237,189.09543 c -12.06084,-7.36136 -22.16613,-13.57779 -22.45621,-13.81429 -0.33198,-0.27068 24.48002,-0.43001 66.96388,-0.43001 l 67.49127,0 22.69441,13.68462 c 12.48194,7.52655 22.79852,13.75778 22.92574,13.84719 0.12722,0.0894 -30.35104,0.14775 -67.72948,0.12966 l -67.9608,-0.0329 -21.92881,-13.38428 z"
       id="path3958-5"
       inkscape:connector-curvature="0" />
    <path
       style="color:#000000;fill:#afe9dd;fill-opacity:1;fill-rule:nonzero;stroke:#afe9dd;stroke-width:0.79272383;stroke-linecap:round;stroke-miterlimit:4;stroke-opacity:1;stroke-dasharray:none;stroke-dashoffset:0;marker:none;visibility:visible;display:inline;overflow:visible;enable-background:accumulate"
       d="m 267.50328,189.15245 c -12.19586,-7.36618 -22.42417,-13.59741 -22.7296,-13.84719 -0.37032,-0.30284 21.91507,-0.45413 66.89448,-0.45413 l 67.44981,0 22.4583,13.65814 c 12.35207,7.51198 22.56241,13.74321 22.68963,13.84719 0.12722,0.10397 -30.10311,0.18903 -67.17851,0.18903 l -67.40985,0 -22.17426,-13.39304 z"
       id="path3960-6"
       inkscape:connector-curvature="0" />
    <path
       style="color:#000000;fill:#5fd3bc;fill-opacity:1;fill-rule:nonzero;stroke:#5fd3bc;stroke-width:0.79272383;stroke-linecap:round;stroke-miterlimit:4;stroke-opacity:1;stroke-dasharray:none;stroke-dashoffset:0;marker:none;visibility:visible;display:inline;overflow:visible;enable-background:accumulate"
       d="m 341.35702,233.83113 c -1.8547,-1.14813 -13.61488,-8.27237 -26.13374,-15.83165 -12.51885,-7.55926 -22.99887,-13.92454 -23.28894,-14.14505 -0.30526,-0.23205 27.87187,-0.39378 66.89674,-0.38395 l 67.42414,0.0169 26.2592,15.98675 c 22.15506,13.48812 26.01624,16.00208 24.70461,16.08489 -0.85503,0.054 -31.01503,0.15695 -67.0222,0.22885 l -65.46761,0.13071 -3.3722,-2.08751 z"
       id="path3962-9"
       inkscape:connector-curvature="0" />
    <path
       style="color:#000000;fill:#fdae61;fill-opacity:1;fill-rule:nonzero;stroke:#fdae61;stroke-width:0.79272383;stroke-linecap:round;stroke-miterlimit:4;stroke-opacity:1;stroke-dasharray:none;stroke-dashoffset:0;marker:none;visibility:visible;display:inline;overflow:visible;enable-background:accumulate"
       d="m 57.064372,123.20386 c -6.851203,-4.18477 -18.92866,-11.53968 -26.838791,-16.34422 l -14.382045,-8.735539 67.712612,0 67.712642,0 13.56616,8.287439 c 7.46137,4.55808 19.52231,11.91298 26.80206,16.34421 l 13.2359,8.05678 -67.6759,0 -67.675891,0 -12.456747,-7.60867 z"
       id="path3946-8-3"
       inkscape:connector-curvature="0" />
    <path
       style="color:#000000;fill:#fdae61;fill-opacity:1;fill-rule:nonzero;stroke:#733a01;stroke-width:1.872;stroke-linecap:round;stroke-miterlimit:4;stroke-opacity:1;stroke-dasharray:none;stroke-dashoffset:0;marker:none;visibility:visible;display:inline;overflow:visible;enable-background:accumulate"
       d="m 180.5294,114.58182 -26.6891,-16.230722 67.66355,-0.115297 67.66355,-0.115305 16.91599,10.212364 c 9.30378,5.61681 21.4279,12.97252 26.94248,16.34602 l 10.02651,6.13365 -67.91694,0 -67.91694,0 -26.6891,-16.23071 z"
       id="path3948-9-6"
       inkscape:connector-curvature="0" />
    <path
       style="color:#000000;fill:#fdae61;fill-opacity:1;fill-rule:nonzero;stroke:#fdae61;stroke-width:0.79272383;stroke-linecap:round;stroke-miterlimit:4;stroke-opacity:1;stroke-dasharray:none;stroke-dashoffset:0;marker:none;visibility:visible;display:inline;overflow:visible;enable-background:accumulate"
       d="m 235.35501,147.95126 -26.29613,-16.00371 67.79705,-0.1153 67.79706,-0.11531 25.40777,15.547 c 13.97428,8.55084 25.78251,15.79791 26.24051,16.10458 0.65932,0.44146 -13.27458,0.56059 -66.90871,0.57202 l -67.74144,0.0145 -26.29611,-16.00371 z"
       id="path3950-4-4"
       inkscape:connector-curvature="0" />
    <path
       style="color:#000000;fill:#2b83ba;fill-opacity:1;fill-rule:nonzero;stroke:#2b83ba;stroke-width:0.79272383000000002;stroke-linecap:round;stroke-miterlimit:4;stroke-opacity:1;stroke-dasharray:none;stroke-dashoffset:0;marker:none;visibility:visible;display:inline;overflow:visible;enable-background:accumulate"
       d="m 461.9896,163.95789 -62.83114,-0.22992 -12.11542,-7.52789 c -6.66348,-4.14034 -18.31474,-11.29093 -25.89169,-15.89021 l -13.77627,-8.36232 66.79402,-0.227 66.79402,-0.22701 12.21352,7.33621 c 6.71743,4.03492 18.95189,11.44089 27.18769,16.45772 l 14.97417,9.12151 -5.25888,-0.11059 c -2.89239,-0.0608 -33.5329,-0.21405 -68.09002,-0.3405 z"
       id="path3952-7-4"
       inkscape:connector-curvature="0" />
    <path
       style="color:#000000;fill:#2b83ba;fill-opacity:1;fill-rule:nonzero;stroke:#2b83ba;stroke-width:0.79272383;stroke-linecap:round;stroke-miterlimit:4;stroke-opacity:1;stroke-dasharray:none;stroke-dashoffset:0;marker:none;visibility:visible;display:inline;overflow:visible;enable-background:accumulate"
       d="m 97.726089,147.94831 -26.269345,-16.00076 67.464246,-0.11531 67.46425,-0.1153 26.25701,15.95911 c 14.44135,8.77751 26.3611,16.03107 26.48832,16.11902 0.12722,0.0879 -30.22614,0.15858 -67.4519,0.15695 l -67.68322,-0.003 -26.269361,-16.00076 z"
       id="path3954-2-9"
       inkscape:connector-curvature="0" />
    <path
       style="color:#000000;fill:#2b83ba;fill-opacity:1;fill-rule:nonzero;stroke:#2b83ba;stroke-width:0.79272383;stroke-linecap:round;stroke-miterlimit:4;stroke-opacity:1;stroke-dasharray:none;stroke-dashoffset:0;marker:none;visibility:visible;display:inline;overflow:visible;enable-background:accumulate"
       d="M -8.3392231,83.444792 -30.752311,69.748719 36.746842,69.633413 104.24598,69.518108 126.33423,82.966172 c 12.14853,7.396426 22.32557,13.628476 22.61565,13.848983 0.30525,0.232058 -27.98957,0.385088 -67.17433,0.363324 L 14.073854,97.140822 -8.3392231,83.44475 z"
       id="path3956-9-4"
       inkscape:connector-curvature="0" />
    <path
       style="color:#000000;fill:#2b83ba;fill-opacity:1;fill-rule:nonzero;stroke:#2b83ba;stroke-width:0.79272383;stroke-linecap:round;stroke-miterlimit:4;stroke-opacity:1;stroke-dasharray:none;stroke-dashoffset:0;marker:none;visibility:visible;display:inline;overflow:visible;enable-background:accumulate"
       d="m 129.82462,83.766016 c -12.06084,-7.36136 -22.16613,-13.577789 -22.4562,-13.81429 -0.33198,-0.270679 24.48001,-0.430005 66.96387,-0.430005 l 67.49127,0 22.69442,13.684624 c 12.48193,7.526541 22.79851,13.757778 22.92573,13.847181 0.12723,0.08941 -30.35104,0.147758 -67.72948,0.129666 l -67.9608,-0.03292 -21.92881,-13.384284 z"
       id="path3958-5-9"
       inkscape:connector-curvature="0" />
    <path
       style="color:#000000;fill:#2b83ba;fill-opacity:1;fill-rule:nonzero;stroke:#2b83ba;stroke-width:0.79272383;stroke-linecap:round;stroke-miterlimit:4;stroke-opacity:1;stroke-dasharray:none;stroke-dashoffset:0;marker:none;visibility:visible;display:inline;overflow:visible;enable-background:accumulate"
       d="m 267.80553,83.823042 c -12.19585,-7.366183 -22.42417,-13.597412 -22.7296,-13.84719 -0.37032,-0.302844 21.91507,-0.454131 66.89448,-0.454131 l 67.44981,0 22.45831,13.658137 c 12.35207,7.511986 22.5624,13.743215 22.68962,13.84719 0.12723,0.103975 -30.1031,0.189036 -67.17851,0.189036 l -67.40984,0 -22.17427,-13.393042 z"
       id="path3960-6-0"
       inkscape:connector-curvature="0" />
    <path
       style="color:#000000;fill:#fdae61;fill-opacity:1;fill-rule:nonzero;stroke:#fdae61;stroke-width:0.79258037;stroke-linecap:round;stroke-miterlimit:4;stroke-opacity:1;stroke-dasharray:none;stroke-dashoffset:0;marker:none;visibility:visible;display:inline;overflow:visible;enable-background:accumulate"
       d="m 341.65928,128.50172 c -1.85471,-1.14813 -13.61489,-8.27237 -26.13374,-15.83165 -12.51886,-7.55926 -22.99888,-13.924541 -23.28895,-14.145049 -0.30525,-0.232049 27.87187,-0.393778 66.89674,-0.383954 l 67.42414,0.01692 26.25921,15.986753 c 22.15506,13.48812 26.01623,16.00207 24.7046,16.08488 -0.85503,0.054 -31.01502,0.15696 -67.0222,0.22886 l -65.46761,0.13071 -3.37219,-2.08752 z"
       id="path3962-9-0"
       inkscape:connector-curvature="0" />
    <path
       style="fill:#ffffff;stroke:#1a1a1a;stroke-width:6.75691557000000032px;stroke-linecap:butt;stroke-linejoin:miter;stroke-opacity:1"
       d="m 246.00937,219.35248 0,-54.45848"
       id="path4156"
       inkscape:connector-curvature="0" />
    <path
       style="fill:#ffffff;stroke:#1a1a1a;stroke-width:6.93473101px;stroke-linecap:butt;stroke-linejoin:miter;stroke-opacity:1"
       d="m 245.9742,321.03423 0,-51.44651 0,0.644 0,0"
       id="path4158"
       inkscape:connector-curvature="0" />
    <path
       style="fill:#ffffff;stroke:#1a1a1a;stroke-width:6.33073235px;stroke-linecap:butt;stroke-linejoin:miter;stroke-opacity:1"
       d="m 246.05162,112.82878 c 0,0 0,-61.017921 0,-99.640073"
       id="path4160"
       inkscape:connector-curvature="0"
       sodipodi:nodetypes="cc" />
    <path
       style="fill:#ffffff;stroke:#1a1a1a;stroke-width:6.93473101px;stroke-linecap:butt;stroke-linejoin:miter;stroke-opacity:1"
       d="m 245.6757,424.53674 0,-51.44651 0,0.644 0,0"
       id="path4158-2"
       inkscape:connector-curvature="0" />
    <text
       xml:space="preserve"
       style="font-size:24.99879646px;font-style:normal;font-variant:normal;font-weight:bold;font-stretch:normal;text-align:start;line-height:125%;letter-spacing:0px;word-spacing:0px;writing-mode:lr-tb;text-anchor:start;fill:#1a1a1a;fill-opacity:1;stroke:none;font-family:Lato;-inkscape-font-specification:Lato Bold"
       x="549.51196"
       y="158.96396"
       id="text4198"
       sodipodi:linespacing="125%"><tspan
         sodipodi:role="line"
         id="tspan4200"
         x="549.51196"
         y="158.96396">Neighborhood (8 cells)</tspan></text>
    <text
       xml:space="preserve"
       style="font-size:24.99879646px;font-style:normal;font-variant:normal;font-weight:bold;font-stretch:normal;text-align:start;line-height:125%;letter-spacing:0px;word-spacing:0px;writing-mode:lr-tb;text-anchor:start;fill:#1a1a1a;fill-opacity:1;stroke:none;font-family:Lato;-inkscape-font-specification:Lato Bold"
       x="553.35236"
       y="263.5332"
       id="text4198-6"
       sodipodi:linespacing="125%"><tspan
         sodipodi:role="line"
         id="tspan4200-6"
         x="553.35236"
         y="263.5332">Annual mean temperature (1 cell)</tspan></text>
    <text
       xml:space="preserve"
       style="font-size:24.99879646px;font-style:normal;font-variant:normal;font-weight:bold;font-stretch:normal;text-align:start;line-height:125%;letter-spacing:0px;word-spacing:0px;writing-mode:lr-tb;text-anchor:start;fill:#1a1a1a;fill-opacity:1;stroke:none;font-family:Lato;-inkscape-font-specification:Lato Bold"
       x="553.57471"
       y="369.91025"
       id="text4198-9"
       sodipodi:linespacing="125%"><tspan
         sodipodi:role="line"
         id="tspan4200-0"
         x="553.57471"
         y="369.91025">Annual mean precipitation (1 cell)</tspan></text>
    <path
       style="fill:#1a1a1a;stroke:#1a1a1a;stroke-width:1.46494675px;stroke-linecap:butt;stroke-linejoin:miter;stroke-opacity:1"
       d="m 257.95899,404.93449 -12.87552,5.64864 -12.44102,-5.64864 12.44372,28.79261 z"
       id="path4388"
       inkscape:connector-curvature="0"
       sodipodi:nodetypes="ccccc" />
    <flowRoot
       xml:space="preserve"
       id="flowRoot4308-8-7-5"
       style="font-size:32px;font-style:normal;font-variant:normal;font-weight:normal;font-stretch:normal;text-align:start;line-height:125%;letter-spacing:0px;word-spacing:0px;writing-mode:lr-tb;text-anchor:start;fill:#1a1a1a;fill-opacity:1;stroke:none;font-family:Lato;-inkscape-font-specification:Lato"
       transform="matrix(2.2317608,0,0,2.2317608,756.46847,1281.9808)"><flowRegion
         id="flowRegion4310-9-0-4"><rect
           id="rect4312-9-3-3"
           width="105.15646"
           height="108.37553"
           x="-354.0983"
           y="-573.80005"
           style="font-size:32px;font-style:normal;font-variant:normal;font-weight:normal;font-stretch:normal;text-align:start;line-height:125%;writing-mode:lr-tb;text-anchor:start;fill:#1a1a1a;font-family:Lato;-inkscape-font-specification:Lato" /></flowRegion><flowPara
         id="flowPara4314-0-3-8"
         style="font-size:22.4038353px;font-style:normal;font-variant:normal;font-weight:bold;font-stretch:normal;text-align:start;line-height:125%;writing-mode:lr-tb;text-anchor:start;fill:#1a1a1a;font-family:Lato;-inkscape-font-specification:Lato Bold">t<flowSpan
   style="font-size:13.4423008px;font-style:normal;font-variant:normal;font-weight:bold;font-stretch:normal;text-align:start;line-height:125%;writing-mode:lr-tb;text-anchor:start;baseline-shift:sub;fill:#1a1a1a;font-family:Lato;-inkscape-font-specification:Lato Bold"
   id="flowSpan4352-8-2">n</flowSpan></flowPara></flowRoot>    <path
       sodipodi:nodetypes="cccccccccccccccc"
       inkscape:connector-curvature="0"
       id="path3001"
       style="fill:#000000;stroke:#000000;stroke-width:0.52260776pt;stroke-linecap:butt;stroke-linejoin:miter;stroke-opacity:1"
       d="M -32.076959,416.40204 125.40854,519.74103 m -19.8707,-103.33899 c 0,0 159.8054,104.70213 157.4854,103.33899 m -19.8707,-103.33899 c 0,0 159.1258,103.33899 157.4854,103.33899 m -19.8708,-103.33899 157.4855,103.33899 m -570.329599,-103.33899 413.157699,0.0727 m -366.009698,30.89482 412.752698,0 M 70.393346,483.73502 482.53874,483.29943 m -357.1302,36.21124 412.7527,0.1452" />
    <flowRoot
       xml:space="preserve"
       id="flowRoot4308-8"
       style="font-size:32px;font-style:normal;font-variant:normal;font-weight:normal;font-stretch:normal;text-align:start;line-height:125%;letter-spacing:0px;word-spacing:0px;writing-mode:lr-tb;text-anchor:start;fill:#1a1a1a;fill-opacity:1;stroke:none;font-family:Lato;-inkscape-font-specification:Lato"
       transform="matrix(2.2317608,0,0,2.2317608,756.98877,1629.3333)"><flowRegion
         id="flowRegion4310-9"><rect
           id="rect4312-9"
           width="105.15646"
           height="108.37553"
           x="-354.0983"
           y="-573.80005"
           style="font-size:32px;font-style:normal;font-variant:normal;font-weight:normal;font-stretch:normal;text-align:start;line-height:125%;writing-mode:lr-tb;text-anchor:start;fill:#1a1a1a;font-family:Lato;-inkscape-font-specification:Lato" /></flowRegion><flowPara
         id="flowPara4314-0"
         style="font-size:22.4038353px;font-style:normal;font-variant:normal;font-weight:bold;font-stretch:normal;text-align:start;line-height:125%;writing-mode:lr-tb;text-anchor:start;fill:#1a1a1a;font-family:Lato;-inkscape-font-specification:Lato Bold">t<flowSpan
   style="font-size:13.4423008px;font-style:normal;font-variant:normal;font-weight:bold;font-stretch:normal;text-align:start;line-height:125%;writing-mode:lr-tb;text-anchor:start;baseline-shift:sub;fill:#1a1a1a;font-family:Lato;-inkscape-font-specification:Lato Bold"
   id="flowSpan4352">n+1</flowSpan></flowPara></flowRoot>    <path
       style="color:#000000;fill:#2b83ba;fill-opacity:1;fill-rule:nonzero;stroke:#2b83ba;stroke-width:2.84073496;stroke-linecap:round;stroke-miterlimit:4;stroke-opacity:1;stroke-dasharray:none;stroke-dashoffset:0;marker:none;visibility:visible;display:inline;overflow:visible;enable-background:accumulate"
       d="m 181.83564,465.16227 -24.8694,-16.56893 66.6555,0 66.6555,0 23.4658,15.31374 c 12.9062,8.42254 24.1145,15.9341 24.9074,16.69234 0.8651,0.82737 -25.2262,1.32927 -65.252,1.25519 l -66.6935,-0.12342 -24.8693,-16.56892 z"
       id="path4413"
       inkscape:connector-curvature="0" />
    <flowRoot
       xml:space="preserve"
       id="flowRoot4690"
       style="font-size:25px;font-style:normal;font-variant:normal;font-weight:normal;font-stretch:normal;text-align:start;line-height:125%;letter-spacing:0px;word-spacing:0px;writing-mode:lr-tb;text-anchor:start;fill:#000000;fill-opacity:1;stroke:none;font-family:Lato;-inkscape-font-specification:Lato"
       transform="translate(-151.1249,139.15595)"><flowRegion
         id="flowRegion4692"><rect
           id="rect4694"
           width="223.18922"
           height="39.701935"
           x="417.40677"
           y="-131.71371"
           style="font-size:25px;font-style:normal;font-variant:normal;font-weight:normal;font-stretch:normal;text-align:start;line-height:125%;writing-mode:lr-tb;text-anchor:start;font-family:Lato;-inkscape-font-specification:Lato" /></flowRegion><flowPara
         id="flowPara4696"><flowSpan
   style="font-weight:bold;-inkscape-font-specification:Lato Bold"
   id="flowSpan4698">Cell size:</flowSpan>1 ha</flowPara></flowRoot>  </g>
</svg>
